<?xml version="1.0" encoding="utf-8"?>
<!-- Generator: Adobe Illustrator 19.0.0, SVG Export Plug-In . SVG Version: 6.00 Build 0)  -->
<svg version="1.1" id="Layer_1" xmlns="http://www.w3.org/2000/svg" xmlns:xlink="http://www.w3.org/1999/xlink" x="0px" y="0px"
	 width="68px" height="68.2px" viewBox="0 0 68 68.2" style="enable-background:new 0 0 68 68.2;" xml:space="preserve">
<style type="text/css">
	.Drop_x0020_Shadow{fill:none;}
	.Round_x0020_Corners_x0020_2_x0020_pt{fill:#FFFFFF;stroke:#000000;stroke-miterlimit:10;}
	.Live_x0020_Reflect_x0020_X{fill:none;}
	.Bevel_x0020_Soft{fill:url(#SVGID_1_);}
	.Dusk{fill:#FFFFFF;}
	.Foliage_GS{fill:#FFDD00;}
	.Pompadour_GS{fill-rule:evenodd;clip-rule:evenodd;fill:#44ADE2;}
	.st0{fill-rule:evenodd;clip-rule:evenodd;fill:#FFFFFF;}
</style>
<linearGradient id="SVGID_1_" gradientUnits="userSpaceOnUse" x1="-272" y1="-363" x2="-271.2929" y2="-362.2929">
	<stop  offset="0" style="stop-color:#DEDFE3"/>
	<stop  offset="0.1738" style="stop-color:#D8D9DD"/>
	<stop  offset="0.352" style="stop-color:#C9CACD"/>
	<stop  offset="0.5323" style="stop-color:#B4B5B8"/>
	<stop  offset="0.7139" style="stop-color:#989A9C"/>
	<stop  offset="0.8949" style="stop-color:#797C7E"/>
	<stop  offset="1" style="stop-color:#656B6C"/>
</linearGradient>
<path id="XMLID_962_" class="st0" d="M6.7,63.4c-0.3,0.3-1,1-1.4,1.5l57.7,0c-0.3-0.3-0.6-0.6-0.9-0.9l-0.4-0.5l-0.9-0.9
	c-1.9-2-5.2-5.3-6.4-6.3c-0.3-0.3-0.7-0.6-1-0.9c-0.3-0.3-0.6-0.6-0.9-0.9c-1.9-1.9-4-3.9-6.1-5.8c-1.1-1-2.2-2-3.2-3
	c-0.6-0.6-1.3-1.2-1.9-1.8c-0.7-0.7-1.4-1.3-2.1-2c-0.5-0.5-1.1-1-1.6-1.5l0,0c-0.6-0.6-1.2-1.2-1.9-1.8l-0.7-0.6
	c-1-0.9-1.5-1.3-1.9-1.3c-0.5,0.1-1.1,0.7-2.3,1.9L30,39.4l-0.8,0.8c-0.9,0.9-2,1.9-2.8,2.8l-1.7,1.8C18.7,51,12.7,57.3,6.7,63.4
	L6.7,63.4z M24.4,27.5c0.1-0.1,0.2-0.1,0.4-0.2c0.6-0.2,9.1-0.2,14.2-0.1c1.5,0,2.8,0,3.4,0l0.3,0c0.9,0,1.7,0,2.2,0.8
	c0.1,0.1,0.1,0.2,0.1,0.3c0.1,0.4,0.1,0.8,0,1.1c-0.1,0.3-0.4,0.6-0.7,0.8c-0.1,0.1-0.2,0.1-0.3,0.1c-0.6,0.2-9,0.1-14.2,0.1
	c-1.6,0-2.8,0-3.5,0l-0.2,0c-1,0-1.8,0-2.3-0.8c-0.1-0.1-0.1-0.2-0.2-0.4c-0.1-0.4-0.1-0.8,0.1-1.1C23.9,27.9,24.2,27.7,24.4,27.5
	L24.4,27.5z M24.5,18.1c0.1-0.1,0.2-0.1,0.3-0.1c0.6-0.2,6.8-0.2,10-0.1l1.7,0c2.1,0,4.1,0,6.2,0c1,0,1.8,0,2.3,0.8
	c0.1,0.1,0.1,0.2,0.1,0.3c0.1,0.4,0.1,0.8-0.1,1.1c-0.1,0.3-0.4,0.6-0.7,0.8c-0.1,0.1-0.2,0.1-0.3,0.1c-0.6,0.2-9.2,0.2-14.3,0.1
	c-1.5,0-2.8,0-3.4,0l-0.1,0c-1,0-1.9,0-2.3-0.8l0,0c-0.1-0.1-0.1-0.2-0.1-0.3c-0.1-0.4-0.1-0.8,0-1.1C23.9,18.5,24.1,18.3,24.5,18.1
	L24.5,18.1L24.5,18.1z M48.7,44.7c0.3-0.3,0.7-0.7,1-1l15-15.1l0,33.9l-0.6-0.7c-0.7-0.8-2.3-2.4-4-4.1c-2.3-2.3-4.9-4.7-6-5.7
	c-2.1-1.8-4.3-4-6.4-5.9c-0.1-0.1-0.1-0.1-0.2-0.2C48,45.4,48.4,45.1,48.7,44.7L48.7,44.7z M18,43c0.2,0.2,0.4,0.4,0.6,0.6
	c0.4,0.4,0.9,0.9,1.3,1.3l-8.5,8.7c-0.5,0.5-1,1-1.4,1.5c-2.2,2.3-4.3,4.8-6.5,7.2l0-33.6L18,43L18,43z M17.8,38.2l-0.2-0.2
	c-0.1-0.1-0.2-0.2-0.3-0.3c-0.3-0.3-0.4-0.4-0.4-1.2l0-16c0-0.9,0-1.9,0-2.9c0-2-0.1-4.2,0-6.1l27,0c0.2,0,0.4,0,0.6,0
	c0.5,0,0.7,0,1.2,0.4l5.6,4l0,21.2c-0.1,0.3-2.2,2.3-3.3,3.4c-0.4,0.4-0.7,0.7-0.8,0.8l-1.9,1.9l-8-7.6c-1.4-1.4-2.4-2.2-3.5-2.4
	c-1.1-0.2-2.2,0.2-3.7,1.4c-0.4,0.3-1.2,1.1-2.2,1.9c-1.4,1.3-3,2.8-3.3,3.2l-0.4,0.5c-0.6,0.7-1.6,1.7-2.1,2
	C21.4,41.9,18.6,39.1,17.8,38.2L17.8,38.2z M11.9,19.2c-2.6,1.9-5.1,3.7-7.7,5.6l9.5,9.3l0-16.2C13.2,18.3,12.4,18.9,11.9,19.2
	L11.9,19.2z M36.7,6c-0.9-0.6-2.4-1.7-2.9-1.9l-6.2,4.4c1.3,0,3,0.1,4.8,0.1c2.9,0,6,0,7.9-0.1c-0.7-0.5-1.3-0.9-2-1.4l-1-0.7
	L36.7,6L36.7,6z M21.7,8.5L21.7,8.5c0.1-0.1,0.1-0.1,0.1-0.1l10.9-7.9c0.2-0.1,0.3-0.2,0.4-0.3c0.1-0.1,0.2-0.1,0.3-0.2
	c0,0,0.1-0.1,0.2-0.1h0.6c0.1,0,0.1,0,0.1,0c1.5,1,2.9,2,4.4,3C40,4,41.3,5,42.6,5.8l3.6,2.6l0,0c0.1,0.1,0.2,0.2,0.2,0.3
	c0,0,0,0.1,0.2,0.2l8.4,5.8c0.6,0.4,1.2,0.8,1.7,1.1c0.9,0.6,1.7,1.1,2.6,1.7l7.5,4.9c0.1,0.1,0.2,0.1,0.2,0.1
	c0.3,0.2,0.7,0.4,0.9,0.8c0,0,0,0.1,0,0.1l0,42.2c0,0.4,0,0.6,0,0.8c0,0.9,0,1.1-0.6,1.6c0,0-0.1,0.1-0.2,0.1H48.6c0,0-0.1,0-0.1,0
	C48.2,68,23.1,68,11,67.9l-5.6,0c-0.8,0-1.4,0-2,0c-0.4,0-0.7,0-1,0c-2.3,0-2.4-0.3-2.4-2.4L0,25.7c0-0.8,0-1.3,0.2-1.7
	c0.2-0.4,0.5-0.6,1-1l1.1-0.8c1-0.7,2-1.4,3.1-2.2c1-0.7,2-1.4,2.9-2.1L9.7,17c0.3-0.2,0.8-0.5,1.2-0.8c1-0.7,2.1-1.5,2.9-2.1l0,0
	c0.1,0,0.1-0.2,0.1-0.5c0-0.1,0-0.3,0-0.4l0-4.2c0-0.1,0.1-0.3,0.3-0.3L21.7,8.5L21.7,8.5L21.7,8.5z M54.3,17.9l0,16.7
	c0.5-0.2,1-0.8,1.4-1.1l3.8-3.7c0.8-0.8,1.6-1.7,2.5-2.5c0.4-0.4,0.8-0.9,1.2-1.3c0.4-0.4,1-0.9,1.2-1.2
	C64.1,24.5,54.8,18,54.3,17.9z"/>
</svg>
