<?xml version="1.0" encoding="utf-8"?>
<!-- Generator: Adobe Illustrator 19.0.0, SVG Export Plug-In . SVG Version: 6.00 Build 0)  -->
<svg version="1.1" id="Layer_1" xmlns="http://www.w3.org/2000/svg" xmlns:xlink="http://www.w3.org/1999/xlink" x="0px" y="0px"
	 width="86.2px" height="67.7px" viewBox="0 0 86.2 67.7" style="enable-background:new 0 0 86.2 67.7;" xml:space="preserve">
<style type="text/css">
	.Drop_x0020_Shadow{fill:none;}
	.Round_x0020_Corners_x0020_2_x0020_pt{fill:#FFFFFF;stroke:#000000;stroke-miterlimit:10;}
	.Live_x0020_Reflect_x0020_X{fill:none;}
	.Bevel_x0020_Soft{fill:url(#SVGID_1_);}
	.Dusk{fill:#FFFFFF;}
	.Foliage_GS{fill:#FFDD00;}
	.Pompadour_GS{fill-rule:evenodd;clip-rule:evenodd;fill:#44ADE2;}
	.st0{fill-rule:evenodd;clip-rule:evenodd;fill:#FFFFFF;}
	.st1{fill-rule:evenodd;clip-rule:evenodd;fill:none;}
</style>
<linearGradient id="SVGID_1_" gradientUnits="userSpaceOnUse" x1="0.181" y1="0" x2="0.8881" y2="0.7071">
	<stop  offset="0" style="stop-color:#DEDFE3"/>
	<stop  offset="0.1738" style="stop-color:#D8D9DD"/>
	<stop  offset="0.352" style="stop-color:#C9CACD"/>
	<stop  offset="0.5323" style="stop-color:#B4B5B8"/>
	<stop  offset="0.7139" style="stop-color:#989A9C"/>
	<stop  offset="0.8949" style="stop-color:#797C7E"/>
	<stop  offset="1" style="stop-color:#656B6C"/>
</linearGradient>
<g id="XMLID_92_">
	<path id="XMLID_100_" class="st0" d="M34.9,53.9l17.1,0L54.1,64l-21.2,0L34.9,53.9L34.9,53.9z M5.4,3.7C6.8,3.3,67.1,3.6,76,3.6
		c2.4,0,5.8-0.6,6.4,1.4c0.4,1.2,0.1,33.8,0.1,39.1c0,2.5,0.6,5.5-1.4,6.1c-1.7,0.5-61.5,0.1-70.7,0.1c-2.4,0-5.8,0.6-6.4-1.4
		C3.6,47.7,3.8,15.1,3.8,9.8C3.8,7.1,3.2,4.4,5.4,3.7L5.4,3.7z M31.2,53.9l-2,10.2c-2.3,0-7.7-1-6.7,2.3c0.6,1.9,6,1.1,8.2,1.1
		l31.8-0.1c1.2-0.3,1.7-1.8,0.9-2.8c-0.8-1-2.7-0.6-4-0.6c-2.3,0-1.8-0.1-2.2-2.5c-0.4-2.2-1.4-5.5-1.5-7.7c5.3,0,10.6,0,15.9,0
		c5,0,11.2,1,13.5-2.4c1.8-2.8,1-11,1-14.8c0-4.8,0.3-29.3-0.1-31.8c-0.7-5.2-5.8-4.8-11-4.8H11.4c-3.7,0-10.2-1-11,4.8
		C0.1,7.5,0.4,31.8,0.4,36.7c0,4-0.8,12.2,1.1,14.9c2.3,3.2,8.8,2.2,13.6,2.2C20.5,53.9,25.8,53.9,31.2,53.9z"/>
	<path id="XMLID_97_" class="st0" d="M10.1,9.8l1,0l65.4,0v27.8l-66.4,0L10.1,9.8L10.1,9.8z M6.6,8.8c0,6.2-0.3,27.2,0.2,31.7
		c0.9,0.5,1.1,0.6,2.5,0.6l68.2,0c2,0,2.5-0.5,2.5-2.5V8.8c0-2.5-1-2.5-3.2-2.5L9,6.3C7.2,6.3,6.6,6.9,6.6,8.8z"/>
	<path id="XMLID_96_" class="st0" d="M33.3,15.1c0.8-1.2-0.2-2.7-1.5-2.7c-1.1,0-2.1,1.2-2.9,1.9c-1.8,1.4-3.4,2.7-5.3,4.2
		C22.1,19.5,13.4,26.2,13,27c-0.6,1.3,0.2,2.6,1.5,2.5c1,0,2.2-1.3,2.9-1.8L33.3,15.1z"/>
	<path id="XMLID_95_" class="st0" d="M20.6,17.5c0.5-1.1-0.1-2.3-1.3-2.4c-1.6-0.2-7.2,5.1-7.3,5.2c-0.6,1.3,0.1,2.5,1.5,2.5
		C14.9,22.8,20.5,17.7,20.6,17.5z"/>
	<path id="XMLID_94_" class="st0" d="M42.5,44c-2.2,0.9-1.1,3.8,1.2,3.1C45.7,46.5,44.6,43.1,42.5,44z"/>
	<path id="XMLID_93_" class="st0" d="M22.5,12.1c-1.9,1-0.8,3.9,1.4,3C25.8,14.3,24.5,11,22.5,12.1z"/>
</g>
<rect id="_x3C_Slice_x3E_" x="0" class="st1" width="86" height="66"/>
</svg>
