<?xml version="1.0" encoding="utf-8"?>
<!-- Generator: Adobe Illustrator 19.0.0, SVG Export Plug-In . SVG Version: 6.00 Build 0)  -->
<svg version="1.1" id="Layer_1" xmlns="http://www.w3.org/2000/svg" xmlns:xlink="http://www.w3.org/1999/xlink" x="0px" y="0px"
	 width="34px" height="52.7px" viewBox="0 0 34 52.7" style="enable-background:new 0 0 34 52.7;" xml:space="preserve">
<style type="text/css">
	.Drop_x0020_Shadow{fill:none;}
	.Round_x0020_Corners_x0020_2_x0020_pt{fill:#FFFFFF;stroke:#000000;stroke-miterlimit:10;}
	.Live_x0020_Reflect_x0020_X{fill:none;}
	.Bevel_x0020_Soft{fill:url(#SVGID_1_);}
	.Dusk{fill:#FFFFFF;}
	.Foliage_GS{fill:#FFDD00;}
	.Pompadour_GS{fill-rule:evenodd;clip-rule:evenodd;fill:#44ADE2;}
	.st0{fill-rule:evenodd;clip-rule:evenodd;fill:#FFFFFF;}
</style>
<linearGradient id="SVGID_1_" gradientUnits="userSpaceOnUse" x1="-289" y1="-371" x2="-288.2929" y2="-370.2929">
	<stop  offset="0" style="stop-color:#DEDFE3"/>
	<stop  offset="0.1738" style="stop-color:#D8D9DD"/>
	<stop  offset="0.352" style="stop-color:#C9CACD"/>
	<stop  offset="0.5323" style="stop-color:#B4B5B8"/>
	<stop  offset="0.7139" style="stop-color:#989A9C"/>
	<stop  offset="0.8949" style="stop-color:#797C7E"/>
	<stop  offset="1" style="stop-color:#656B6C"/>
</linearGradient>
<path id="XMLID_345_" class="st0" d="M16.8,0C9.8,0,2,2.5,2,6.9C2,8.8,3.9,12,6.3,12c1.3,0,3.9-3.2,8.7-3.2c3.9,0,6.9,2,6.9,6
	c0,2.8-1.2,5.1-2.8,7.2L0.2,45.1C0.1,45.3,0,45.7,0,46.2c0,2.2,1,6.6,2.1,6.6h29.6c1.6,0,2.2-1.1,2.2-3.7v-1.3
	c0-2.6-0.7-3.7-2.2-3.7H14.5l14-17.3c2.7-3.3,4.5-7.4,4.5-12.1C33.1,6.1,27.3,0,16.8,0z"/>
</svg>
