<?xml version="1.0" encoding="utf-8"?>
<!-- Generator: Adobe Illustrator 19.0.0, SVG Export Plug-In . SVG Version: 6.00 Build 0)  -->
<svg version="1.1" id="Layer_1" xmlns="http://www.w3.org/2000/svg" xmlns:xlink="http://www.w3.org/1999/xlink" x="0px" y="0px"
	 width="49.2px" height="66.5px" viewBox="0 0 49.2 66.5" style="enable-background:new 0 0 49.2 66.5;" xml:space="preserve">
<style type="text/css">
	.Drop_x0020_Shadow{fill:none;}
	.Round_x0020_Corners_x0020_2_x0020_pt{fill:#FFFFFF;stroke:#000000;stroke-miterlimit:10;}
	.Live_x0020_Reflect_x0020_X{fill:none;}
	.Bevel_x0020_Soft{fill:url(#SVGID_1_);}
	.Dusk{fill:#FFFFFF;}
	.Foliage_GS{fill:#FFDD00;}
	.Pompadour_GS{fill-rule:evenodd;clip-rule:evenodd;fill:#44ADE2;}
	.st0{fill-rule:evenodd;clip-rule:evenodd;fill:#FFFFFF;}
</style>
<linearGradient id="SVGID_1_" gradientUnits="userSpaceOnUse" x1="-282" y1="-361" x2="-281.2929" y2="-360.2929">
	<stop  offset="0" style="stop-color:#DEDFE3"/>
	<stop  offset="0.1738" style="stop-color:#D8D9DD"/>
	<stop  offset="0.352" style="stop-color:#C9CACD"/>
	<stop  offset="0.5323" style="stop-color:#B4B5B8"/>
	<stop  offset="0.7139" style="stop-color:#989A9C"/>
	<stop  offset="0.8949" style="stop-color:#797C7E"/>
	<stop  offset="1" style="stop-color:#656B6C"/>
</linearGradient>
<g id="XMLID_769_">
	<path id="XMLID_771_" class="st0" d="M4.1,43.7c0-7.9,4.6-16,8.6-21.9c1-1.5,1.7-2.8,2.8-4.3c1.9-2.7,7.8-11.3,9.1-12.2
		c1.2,0.8,5,6.3,6.2,8c4.3,6,14.3,21.2,14.3,28.2c0,3.9-0.2,6.2-2.1,9.8C36.5,63.9,19.9,66.4,10.5,57C7.2,53.7,4.1,49,4.1,43.7
		L4.1,43.7z M0,42.6c0,6.4,3.5,13,6.8,16.3c13.1,13.3,33.9,8,40.1-6.7c1.1-2.7,2.3-6.7,2.3-9.7c0-11-14.4-30.9-21.9-40.4
		c-3.1-3.9-3.8-2.3-7.1,2.1C19,6,17.9,7.3,16.7,9c-2.4,3.3-4.5,6.5-6.8,10c-2.2,3.4-4.2,7-6.1,10.7c-0.9,1.8-1.8,3.8-2.4,5.8
		C0.9,37.1,0,40.4,0,42.6z"/>
	<path id="XMLID_770_" class="st0" d="M10.4,38.9c-3.3,13.7,17.9,22,17.9,15.7c0-0.9-0.6-1.1-1.1-1.9c-3.1,0-3.9-0.1-6-1.1
		c-1.4-0.7-3.4-1.9-4.3-3.1c-1.1-1.4-1.9-2.8-2.4-4.6C13.8,41.5,14.8,37.2,10.4,38.9z"/>
</g>
</svg>
