<?xml version="1.0" encoding="utf-8"?>
<!-- Generator: Adobe Illustrator 19.0.0, SVG Export Plug-In . SVG Version: 6.00 Build 0)  -->
<svg version="1.1" id="Layer_1" xmlns="http://www.w3.org/2000/svg" xmlns:xlink="http://www.w3.org/1999/xlink" x="0px" y="0px"
	 width="52.2px" height="62.7px" viewBox="0 0 52.2 62.7" style="enable-background:new 0 0 52.2 62.7;" xml:space="preserve">
<style type="text/css">
	.Drop_x0020_Shadow{fill:none;}
	.Round_x0020_Corners_x0020_2_x0020_pt{fill:#FFFFFF;stroke:#000000;stroke-miterlimit:10;}
	.Live_x0020_Reflect_x0020_X{fill:none;}
	.Bevel_x0020_Soft{fill:url(#SVGID_1_);}
	.Dusk{fill:#FFFFFF;}
	.Foliage_GS{fill:#FFDD00;}
	.Pompadour_GS{fill-rule:evenodd;clip-rule:evenodd;fill:#44ADE2;}
	.st0{fill-rule:evenodd;clip-rule:evenodd;fill:#FFFFFF;}
</style>
<linearGradient id="SVGID_1_" gradientUnits="userSpaceOnUse" x1="-280" y1="-365" x2="-279.2929" y2="-364.2929">
	<stop  offset="0" style="stop-color:#DEDFE3"/>
	<stop  offset="0.1738" style="stop-color:#D8D9DD"/>
	<stop  offset="0.352" style="stop-color:#C9CACD"/>
	<stop  offset="0.5323" style="stop-color:#B4B5B8"/>
	<stop  offset="0.7139" style="stop-color:#989A9C"/>
	<stop  offset="0.8949" style="stop-color:#797C7E"/>
	<stop  offset="1" style="stop-color:#656B6C"/>
</linearGradient>
<path id="XMLID_620_" class="st0" d="M7.2,0H36c0.1,0,0.1,0.1,0.2,0.1l0,0l0,0c0.4,0,0.3,0.1,0.6,0.2c0.4,0.1,0.1,0.1,0.5,0.3
	c0.2,0.1,0.1,0.1,0.3,0.2C37.8,0.9,37.9,0.9,38,1c0.1,0.1,0.1,0.1,0.2,0.2c0.1,0.1,0.2,0.1,0.2,0.2l0.1,0c0.2,0.1,0.2,0.1,0.3,0.2
	c0.1,0.1,0.1,0.1,0.2,0.2l0.3,0.3c0.1,0.1,0.1,0.1,0.1,0.1l0.3,0.3c0.2,0.2,0.1,0.1,0.3,0.3l0.2,0.2l0.1,0l0,0.1l0.1,0.1
	c0.2,0.1,0.1,0.1,0.2,0.2c0.1,0.1,0.2,0.1,0.2,0.2c0.1,0,0,0,0.2,0.1C41.2,4,41.2,4,41.2,4.1c0.1,0.1,0.1,0.1,0.2,0.1
	c0,0,0.1,0.1,0.1,0.1c0.1,0.1,0,0,0,0.1c0.1,0,0.1,0,0.1,0.1l0.9,0.9c0.2,0.1,0,0.1,0.3,0.3c0.1,0.1,0.1,0,0.1,0.1l0.7,0.7
	c0.1,0.2,0.1,0,0.3,0.2l0.9,0.9c0.1,0.1,0.1,0.1,0.2,0.2c0.1,0.1,0,0.1,0.2,0.3c0.1,0.1,0.2,0.2,0.2,0.3l0.1,0
	c0,0.1,0.1,0.1,0.1,0.2c0.1,0.1,0.1,0.1,0.2,0.2c0.2,0.1,0.1,0.1,0.4,0.3c0.1,0.1,0.1,0.1,0.1,0.2c0.1,0.1,0.1,0,0.2,0.1L47,9.9
	c0.1,0.1,0.1,0.1,0.2,0.1c0.1,0.1,0.1,0.1,0.2,0.2l0.8,0.8c0.1,0.1,0.3,0.3,0.3,0.3l1,1c0.1,0,0.2,0.1,0.3,0.2
	c0.1,0.1,0.1,0.1,0.2,0.2c0.2,0.3,0.1,0.1,0.2,0.2c0.1,0.1,0,0.1,0.2,0.2c0.1,0.1,0.1,0.1,0.2,0.3c0.1,0.2,0.1,0,0.2,0.3
	c0.1,0.2,0.1,0.1,0.2,0.3c0.1,0.1,0.1,0.2,0.1,0.3c0.1,0.1,0.1,0.1,0.2,0.3c0,0.2,0.1,0.2,0.2,0.3c0.1,0.2,0,0.4,0.3,0.6
	c0.1,0.2,0,0.4,0.2,0.7C52,16.4,52,16.9,52,17l0.1,0l0,0.4c0,0.3,0,26,0,27.1c0,0.2,0,8.8,0,9.1l0,1c0-0.1,0,0-0.1,0
	c-0.1,0.5,0,0.3-0.2,0.7c0,0.1,0,0.1,0,0.1c0,0,0,0,0,0.1c0,0,0,0,0,0l0,0l0,0.1c0,0.4-0.2,0.3-0.2,0.8c0,0.3-0.1,0.2-0.1,0.2
	c0,0,0,0,0,0.1c-0.1,0.1,0,0-0.1,0.1l0,0.1c0,0.3,0,0.2-0.1,0.4c-0.1,0.1-0.1,0.2-0.1,0.4c0,0.2-0.1,0.1-0.2,0.3
	c-0.1,0.1,0,0.2-0.1,0.3c0,0.1,0,0-0.1,0l0,0.1c0,0.3-0.2,0.3-0.3,0.5c-0.1,0.1-0.1,0.1-0.2,0.2C50,59,50,59,49.9,59.1
	c-0.3,0.3-0.2,0.2-0.3,0.4c-0.1,0.1-0.1,0.1-0.2,0.2c-0.1,0.1-0.1,0.1-0.2,0.2c-0.2,0.2-0.5,0.5-0.8,0.7c-0.3,0.2-0.4,0.4-0.6,0.5
	c-0.1,0,0,0-0.1,0.1c-0.1,0.1,0,0.1-0.1,0.1c0,0.1,0,0.1-0.1,0.1c-0.1,0-0.1,0-0.2,0.1c-0.2,0.2-0.1,0.1-0.4,0.2
	c-0.2,0.1-0.2,0.1-0.4,0.2c-0.1,0-0.3,0.2-0.3,0.2c-0.1,0-0.1,0-0.2,0c0,0-0.1,0-0.1,0c-0.1,0.1,0,0-0.1,0.1
	c-0.1,0.1-0.3,0.1-0.4,0.1c-0.4,0.1-0.4,0.3-0.9,0.2l0,0l0,0.2H7.7l0-0.1c-0.7,0-0.6-0.2-1-0.3c-0.4-0.1-0.1-0.1-0.7-0.3
	c-0.1,0-0.1-0.1-0.2-0.1c-0.1,0-0.2-0.1-0.3-0.1l-0.6-0.3c-0.1-0.1,0-0.1-0.3-0.2c-0.1-0.1-0.1-0.1-0.3-0.2C4.1,61,4.2,61,4.1,60.9
	L3,60c-0.1-0.1-0.1-0.2-0.2-0.2l-1-1.3c0,0,0,0,0-0.1c0,0,0,0-0.1-0.1c0,0,0-0.1,0-0.1c-0.1-0.1-0.1,0-0.1-0.2c-0.2,0,0,0-0.2-0.4
	c-0.1-0.2-0.1-0.3-0.2-0.4C0.8,57,1,57.1,0.9,56.8c-0.1-0.2-0.2-0.2-0.2-0.4c-0.1-0.7-0.2-0.1-0.3-1c0-0.4-0.2-0.1-0.2-1
	c-0.1,0,0,0-0.1,0l0-0.7l0-0.2l0-45L0,8c0,0,0,0,0,0c0.2-0.1,0-0.2,0.2-0.7l0.1-0.1c0,0,0,0,0,0c0,0,0,0,0,0c0,0,0,0,0,0
	c0-0.2,0-0.4,0.1-0.5c0.1-0.2,0.2-0.3,0.2-0.5c0-0.2,0.1-0.2,0.2-0.4c0.1-0.2,0-0.3,0.2-0.4l0-0.1c0-0.4,0.2-0.3,0.3-0.6
	c0.1-0.2,0-0.1,0.1-0.2c0.1-0.1,0.1-0.1,0.1-0.3C1.7,4,1.8,4,1.8,3.9c0.1-0.1,0-0.1,0.2-0.2c0.1-0.1,0.2-0.3,0.4-0.4l0,0
	c0.1-0.2,0.7-0.8,0.9-1c0.1-0.1,0.1-0.1,0.2-0.1L4,1.6c0.1-0.1,0.1-0.1,0.1-0.1c0.1-0.1,0.1-0.1,0.2-0.1c0.1-0.1,0.2-0.1,0.3-0.2
	C4.9,1.1,4.9,1,5,0.9c0.1,0,0.1,0,0.2-0.1c0.1,0,0.1-0.1,0.2-0.1l0.7-0.3c0.4-0.1,0.2-0.1,0.4-0.2c0.1-0.1,0.3-0.1,0.4-0.1
	C7.1,0.1,7,0,7.2,0L7.2,0z M10.9,43.7c-0.2,0-0.4,0.4-0.5,0.5c-0.1,0.1-0.2,0.1-0.2,0.3c-0.1,0.2,0,0.2-0.1,0.4
	C10,45.1,10,45.3,10,45.7c0,0.3,0,0.7,0.1,0.9c0,0.1,0.1,0.2,0.2,0.3c0.1,0.2,0,0.2,0.1,0.3c0.2,0.2,0.1,0.3,0.3,0.4
	c0.1,0.1,0.4,0.5,0.6,0.6c0.2,0.1,0.4,0.3,0.7,0.3c0.1,0,0.1,0.1,0.3,0.1c0.1,0,0.3,0,0.4,0c0.2,0.2,1.4,0.1,1.7,0.1h24.5
	c0.3,0,0.5,0,0.8-0.1c0.5-0.1,0.3,0.1,1-0.4c0.1-0.1,0.2-0.1,0.3-0.2c0.2-0.1,0.1-0.1,0.3-0.2c0.1-0.1,0.2-0.1,0.2-0.3
	c0.1,0,0.1,0,0.1-0.1l0.2-0.3c0.1-0.1,0.1-0.1,0.1-0.2c0.1-0.1,0.1-0.3,0.1-0.4c0.1-0.2,0.1-0.1,0.1-0.4c0-0.3,0.1-1.2-0.1-1.5
	c-0.2-0.3-0.1-0.2-0.1-0.3c0-0.1,0,0,0-0.1l-0.3-0.5c0-0.1-0.6-0.6-0.7-0.7c-0.1-0.1-0.2-0.2-0.3-0.2c-0.6-0.3-0.1-0.2-0.8-0.3
	c-0.1,0-0.3-0.1-0.4-0.1l-0.2-0.1c-0.3,0-22.4,0-24.9,0c-0.1,0-1.5,0-1.6,0c-0.1,0,0,0-0.1,0.1c-0.1,0-0.3,0.1-0.5,0.1
	c-0.2,0-0.3,0.1-0.4,0.2c-0.2,0.1-0.5,0.2-0.6,0.4l-0.1,0c0,0.1-0.1,0.1-0.1,0.1c0,0,0,0.1,0,0.1C10.9,43.7,11,43.6,10.9,43.7
	L10.9,43.7L10.9,43.7z M11.6,30.6c-0.2,0-0.3,0.2-0.5,0.3c-0.2,0.1-0.5,0.5-0.6,0.6c-0.1,0.1-0.1,0.1-0.1,0.2
	c-0.1,0.3-0.1-0.1-0.3,0.5c0,0.1-0.1,0.2-0.1,0.2C10,32.5,10,32.5,10,32.7c0,0.3-0.1,1.3,0.1,1.4c0.1,0.2,0.2,0.1,0.2,0.6
	c0.1,0,0.2,0.1,0.2,0.2c0.1,0.2,0.1,0.1,0.2,0.3c0.1,0.2,0,0.1,0.2,0.3c0.2,0.1-0.1,0,0.4,0.3c0.1,0,0.1,0.1,0.1,0.1
	c0.1,0.1,0.2,0.1,0.3,0.2c0.4,0.3,0.2,0.1,0.7,0.2c0.4,0.1,0.1,0.1,0.9,0.1h25.5c0.1,0,0.2,0,0.3,0c0,0,0.1,0,0.1,0
	c0.1,0,0.1,0,0.1-0.1l0.5-0.1c0.1,0,0.2,0,0.3,0c0,0,0.1,0,0.1,0c0.1-0.1,0,0,0.1-0.1c0.1,0,0.1,0,0.1,0c0.3-0.1,0.3-0.1,0.5-0.3
	c0.1-0.1,0.2-0.1,0.2-0.1l0.5-0.6c0.1-0.1,0.1-0.2,0.1-0.2c0.2-0.3,0,0.1,0.2-0.5c0.1-0.4,0.2,0.1,0.2-0.9c0-0.2,0-0.5,0-0.7
	c0-0.1,0-0.2-0.1-0.3c0-0.1-0.1-0.2-0.2-0.2c0-0.2-0.1-0.3-0.3-0.5c0-0.2-0.3-0.5-0.4-0.5c-0.2-0.1,0-0.1-0.4-0.3
	c-0.2-0.1,0.1,0-0.4-0.3c-0.3-0.1,0.1-0.1-0.6-0.2c-0.1,0-0.2-0.1-0.3-0.1c-0.1-0.1,0,0-0.1,0c-0.1-0.1-3.3,0-3.4,0H14.8
	c-0.6,0-1.2,0-1.8,0c-0.4,0-0.4,0.1-0.7,0.2c-0.1,0-0.3,0-0.4,0.1L11.6,30.6L11.6,30.6z M30.3,18.7c0-0.1-0.4-0.4-0.5-0.4
	c-0.3-0.2-0.1-0.1-0.4-0.2c-0.1-0.1-0.3-0.3-0.7-0.2l0,0c-0.5-0.1-0.1-0.1-1-0.1H13.5c-0.2,0-0.4,0-0.5,0c-0.2,0-0.3,0-0.5,0.1
	c-0.2,0.1-0.5,0.1-0.7,0.2l-0.2,0.2l-0.2,0.1c-0.1,0-0.3,0.2-0.4,0.3c-0.1,0-0.1,0-0.2,0.1c0,0.1,0,0-0.1,0.1c-0.1,0.1,0,0-0.1,0.1
	c-0.1,0,0,0-0.1,0.1c-0.3,0.3-0.2,0.3-0.4,0.5c-0.1,0.1-0.1,0.1-0.1,0.2c0,0,0,0,0,0.1l-0.1,0.2c-0.2,0.5-0.2,0.3-0.2,1
	c0,1,0.1,0.7,0.2,1c0.1,0.4,0,0.1,0.2,0.4c0.1,0.1,0.1,0.2,0.2,0.4c0.1,0.1,0.1,0.1,0.2,0.2c0.1,0.1,0.1,0.1,0.2,0.2
	c0,0.1,0,0.1,0.1,0.1c0.1,0.1,0.1,0,0.4,0.2c0.1,0.1,0.2,0.1,0.3,0.1c0.1,0.1,0.1,0.1,0.3,0.1l0.1,0c0.1,0.1,0,0,0.1,0.1l0.4,0
	c0.2,0,0.3,0.1,0.4,0.1c0.3,0,2.7,0,3.1,0h11.4c0.3,0,0.7,0,0.9-0.1c0.1,0,0,0,0.1,0c0.1,0,0.4,0,0.5-0.1c0.2,0,0.2-0.2,0.4-0.2
	c0.1,0,0.3,0,0.3-0.1l0.1-0.1c0.1-0.1,0,0,0.1-0.1c0.2-0.1,0.1,0,0.2-0.2c0.1-0.1,0.1-0.1,0.2-0.2c0.3-0.4,0.2-0.2,0.3-0.4
	c0-0.1,0.1-0.1,0.2-0.2c0.1-0.1,0.1-0.2,0.1-0.3c0.1-0.4,0.2,0.1,0.2-1.3c0-0.2,0-0.5,0-0.7c0-0.3-0.1-0.2-0.2-0.4
	c-0.1-0.1,0-0.1-0.1-0.1c0-0.1,0-0.1-0.1-0.2c0,0-0.1-0.1-0.1-0.1c-0.1-0.1,0,0-0.1-0.1c0-0.1-0.1-0.1-0.1-0.2c0-0.1,0-0.1-0.1-0.2
	C30.4,18.8,30.4,18.8,30.3,18.7C30.3,18.7,30.4,18.8,30.3,18.7L30.3,18.7z M7.2,5.8L7,5.9C6.9,6,6.9,6,6.7,6.2
	C6.7,6.3,6.7,6.3,6.6,6.3c0,0.1,0,0.1-0.1,0.1c0,0.2-0.1,0.1-0.2,0.3C6.1,7.1,6.2,6.8,6,7.2c0,0.1-0.1,0.1-0.2,0.2
	C5.8,7.5,5.8,7.6,5.8,7.6c0,0.1-0.1,0.1-0.1,0.3C5.5,8,5.5,8.3,5.5,8.5C5.4,8.8,5.3,8.8,5.3,9.1c0,0.3,0,0.5,0,0.8v32.5
	c0,3.6,0,7.2,0,10.8c0,0.7,0.3,0.8,0.2,1.3c0,0.1,0,0,0,0.1c0.1,0.1,0,0,0.1,0.1c0.1,0.1,0.1,0.2,0.1,0.4l0.4,0.6c0,0,0,0,0,0
	l0.1,0.2c0.2,0.1,0.1,0.2,0.6,0.6c0.2,0.1,0.6,0.4,0.6,0.5c0.3,0,0.3,0.1,0.4,0.2c0.1,0,0.2,0,0.3,0.1c0.2,0,0.2,0.2,0.7,0.2
	c0.3,0,0.6,0.1,0.8,0.1c0.6,0,0.2,0.1,0.9,0.1l30.3,0c0.6,0,1.2,0,1.8-0.1c0.2,0,0.3-0.1,0.5-0.1c0.2,0,0.4,0,0.5-0.1
	c0.2-0.2,0.3-0.1,0.5-0.2c0.1,0,0.1-0.1,0.2-0.1c0.1,0,0.2,0,0.2-0.1c0.1-0.1,0-0.1,0.2-0.2c0.1,0,0.2-0.1,0.2-0.1l0.3-0.3
	c0.1-0.1,0.1-0.1,0.2-0.1c0.1-0.1,0.1-0.1,0.2-0.2c0-0.1,0-0.1,0.1-0.2c0,0,0,0,0.1-0.1c0,0,0,0,0.1-0.1c0-0.2,0.2-0.2,0.2-0.4
	c0.1-0.1,0-0.1,0.1-0.2c0.2-0.2,0.1-0.2,0.2-0.4c0-0.1,0.1-0.1,0.1-0.2c0.1-0.1,0.1-0.4,0.1-0.5c0-0.2,0.1-0.3,0.2-0.4
	c0.1-0.2,0-1.5,0-1.8V22.3c0-1.4,0-3,0-4.3c0-0.3,0-0.3-0.1-0.5c-0.2,0-3.7,0-4.1,0c-0.3,0-2.3,0-2.6-0.1c0,0,0,0,0,0
	c-0.4-0.2-0.8,0.1-1.1-0.3c0,0-0.1-0.1-0.2,0c-0.1,0-0.3,0-0.3,0c-0.1,0-0.1-0.1-0.2-0.1c-0.2-0.1-0.4-0.1-0.5-0.2
	c-0.2-0.3-0.2-0.1-0.4-0.3l-0.6-0.4c-0.2-0.1-0.6-0.5-0.7-0.6c-0.1-0.1-0.5-0.4-0.5-0.5l0,0c-0.1-0.1-0.5-0.5-0.5-0.6
	c-0.1-0.1,0-0.1-0.1-0.2c-0.1-0.1-0.1-0.1-0.1-0.2c-0.1-0.1-0.1-0.1-0.1-0.2l-0.2-0.5c-0.1,0,0,0-0.1-0.1c0,0,0-0.1,0-0.1
	c0-0.1,0-0.1,0-0.2l0,0c-0.1,0,0,0-0.1-0.1c-0.2-0.2-0.2-0.4-0.2-0.6l0,0L34,12.1c-0.1-0.2-0.2-0.4-0.2-0.6c0-1.5,0-3.2,0-4.7
	c0-2.3,0.2-1.9-0.9-1.9H11.4c-0.8,0-0.9,0-1.7,0.1C9.5,4.9,9.2,5,9,5C8.8,5,8.6,5,8.5,5.1c-0.1,0,0,0.1-0.1,0.1
	C8.2,5.3,8.1,5.3,8,5.3c-0.1,0-0.1,0.1-0.3,0.2C7.6,5.5,7.5,5.5,7.5,5.6C7.3,5.7,7.3,5.8,7.2,5.8z"/>
</svg>
