<?xml version="1.0" encoding="utf-8"?>
<!-- Generator: Adobe Illustrator 19.0.0, SVG Export Plug-In . SVG Version: 6.00 Build 0)  -->
<svg version="1.1" id="Layer_1" xmlns="http://www.w3.org/2000/svg" xmlns:xlink="http://www.w3.org/1999/xlink" x="0px" y="0px"
	 width="44.7px" height="56.9px" viewBox="0 0 44.7 56.9" style="enable-background:new 0 0 44.7 56.9;" xml:space="preserve">
<style type="text/css">
	.Drop_x0020_Shadow{fill:none;}
	.Round_x0020_Corners_x0020_2_x0020_pt{fill:#FFFFFF;stroke:#000000;stroke-miterlimit:10;}
	.Live_x0020_Reflect_x0020_X{fill:none;}
	.Bevel_x0020_Soft{fill:url(#SVGID_1_);}
	.Dusk{fill:#FFFFFF;}
	.Foliage_GS{fill:#FFDD00;}
	.Pompadour_GS{fill-rule:evenodd;clip-rule:evenodd;fill:#44ADE2;}
	.st0{fill-rule:evenodd;clip-rule:evenodd;fill:#26B8EB;}
</style>
<linearGradient id="SVGID_1_" gradientUnits="userSpaceOnUse" x1="-284" y1="-368" x2="-283.2929" y2="-367.2929">
	<stop  offset="0" style="stop-color:#DEDFE3"/>
	<stop  offset="0.1738" style="stop-color:#D8D9DD"/>
	<stop  offset="0.352" style="stop-color:#C9CACD"/>
	<stop  offset="0.5323" style="stop-color:#B4B5B8"/>
	<stop  offset="0.7139" style="stop-color:#989A9C"/>
	<stop  offset="0.8949" style="stop-color:#797C7E"/>
	<stop  offset="1" style="stop-color:#656B6C"/>
</linearGradient>
<g id="XMLID_1038_">
	<path id="XMLID_1040_" class="st0" d="M6.2,34.1c-0.2,2.5,0.6,5.3,1.7,7.6c3,6.5,11.1,10.4,18.4,8.4c7.2-2,12.2-8.2,12.1-15.7
		c0-5-1.9-10.2-4.5-14.1c-2.4-3.7-3.3-4.9-6.1-7.8c-0.7-0.8-1.5-1.7-2.3-2.4c-0.7-0.7-1.5-1.6-3.1-1.6c-1.7,0-2.3,1-3,1.7
		c-1.1,1.1-3.3,3.6-4.3,4.9c-2.6,3.3-5.5,7.4-7.1,11.4C7,29.2,6.5,30.9,6.2,34.1L6.2,34.1z M21.8,0h1.1L23,0.1
		c0.6,0.3,0.7,0.2,1.8,1.1c4.5,3.6,8.9,7.9,12.2,12.6c1.4,2,2.5,3.5,3.6,5.8c3.1,6.1,5,13.4,3.3,20.3c-1.2,4.9-3.6,8.4-7.1,11.5
		c-2.6,2.4-6.8,4.4-10.5,5.1c-0.5,0.1-2.6,0.3-2.8,0.4h-3.1c-0.5-0.3-3.1-0.3-5.1-1.1c-1.5-0.5-3.1-1.2-4.3-1.9
		c-2.9-1.8-4.7-3.3-6.6-5.8C0.6,43-1.1,36.3,0.7,28.6c0.9-3.9,3.6-9.2,5.9-12.6c3.9-5.5,6.7-8.8,11.5-13.4c0.5-0.5,1.9-1.8,2.5-2.2
		C21.1,0.2,21.5,0.2,21.8,0z"/>
	<path id="XMLID_1039_" class="st0" d="M18.4,41.3l0-4.4l-4.7,0c-1.4-0.2-1.3-1.6-1.3-2.4c0-1-0.1-2.7,0-3.7c0.3-2.2,3.4-1,6-1.4
		c0.1-1.2-0.2-3.9,0.1-4.8c0.4-1.5,2.2-1.2,3.7-1.2c1.5,0,3.4-0.3,3.8,1.1c0.3,1,0,3.7,0.1,4.9c2,0.4,5.6-0.9,5.8,1.6
		c0.1,1.2,0,2.5,0,3.7c0,1.3-0.2,2.2-1.4,2.3l-4.4,0l0,4.3c-0.1,1.8-2.1,1.5-3.7,1.5C20.6,42.7,18.5,43.1,18.4,41.3z"/>
</g>
</svg>
