<?xml version="1.0" encoding="utf-8"?>
<!-- Generator: Adobe Illustrator 19.0.0, SVG Export Plug-In . SVG Version: 6.00 Build 0)  -->
<svg version="1.1" id="Layer_1" xmlns="http://www.w3.org/2000/svg" xmlns:xlink="http://www.w3.org/1999/xlink" x="0px" y="0px"
	 width="33px" height="53.3px" viewBox="0 0 33 53.3" style="enable-background:new 0 0 33 53.3;" xml:space="preserve">
<style type="text/css">
	.Drop_x0020_Shadow{fill:none;}
	.Round_x0020_Corners_x0020_2_x0020_pt{fill:#FFFFFF;stroke:#000000;stroke-miterlimit:10;}
	.Live_x0020_Reflect_x0020_X{fill:none;}
	.Bevel_x0020_Soft{fill:url(#SVGID_1_);}
	.Dusk{fill:#FFFFFF;}
	.Foliage_GS{fill:#FFDD00;}
	.Pompadour_GS{fill-rule:evenodd;clip-rule:evenodd;fill:#44ADE2;}
	.st0{fill-rule:evenodd;clip-rule:evenodd;fill:#FFFFFF;}
</style>
<linearGradient id="SVGID_1_" gradientUnits="userSpaceOnUse" x1="-289" y1="-370" x2="-288.2929" y2="-369.2929">
	<stop  offset="0" style="stop-color:#DEDFE3"/>
	<stop  offset="0.1738" style="stop-color:#D8D9DD"/>
	<stop  offset="0.352" style="stop-color:#C9CACD"/>
	<stop  offset="0.5323" style="stop-color:#B4B5B8"/>
	<stop  offset="0.7139" style="stop-color:#989A9C"/>
	<stop  offset="0.8949" style="stop-color:#797C7E"/>
	<stop  offset="1" style="stop-color:#656B6C"/>
</linearGradient>
<path id="XMLID_398_" class="st0" d="M16,0C8.6,0,1.6,1.7,1.6,5.4c0,2,2.2,5.7,3.7,5.7c1.3,0,3.1-2.3,8.8-2.3c4,0,6,2.4,6,6
	c0,3.7-2.8,6.2-7.7,6.2H11c-1.6,0-2.2,1.1-2.2,3.7v1.3c0,2.6,0.7,3.7,2.2,3.7h2.1c6.3,0,8.7,2.7,8.7,7.6c0,4.6-3,7.2-7.4,7.2
	c-6,0-9.5-3.1-10.8-3.1c-1.7,0-3.6,4.2-3.6,5.7c0,4.6,10.6,6.1,16.2,6.1c9.9,0,16.8-5.9,16.8-15.8c0-6.1-2.8-11.1-8.6-13.3v-0.3
	c4.2-1.8,6.9-5.7,6.9-10.9C31.3,5.1,25.3,0,16,0z"/>
</svg>
