<?xml version="1.0" encoding="utf-8"?>
<!-- Generator: Adobe Illustrator 19.0.0, SVG Export Plug-In . SVG Version: 6.00 Build 0)  -->
<svg version="1.1" id="Layer_1" xmlns="http://www.w3.org/2000/svg" xmlns:xlink="http://www.w3.org/1999/xlink" x="0px" y="0px"
	 width="99px" height="74.8px" viewBox="0 0 99 74.8" style="enable-background:new 0 0 99 74.8;" xml:space="preserve">
<style type="text/css">
	.Drop_x0020_Shadow{fill:none;}
	.Round_x0020_Corners_x0020_2_x0020_pt{fill:#FFFFFF;stroke:#000000;stroke-miterlimit:10;}
	.Live_x0020_Reflect_x0020_X{fill:none;}
	.Bevel_x0020_Soft{fill:url(#SVGID_1_);}
	.Dusk{fill:#FFFFFF;}
	.Foliage_GS{fill:#FFDD00;}
	.Pompadour_GS{fill-rule:evenodd;clip-rule:evenodd;fill:#44ADE2;}
	
		.st0{fill-rule:evenodd;clip-rule:evenodd;fill:none;stroke:#FFFFFF;stroke-width:4.2117;stroke-linecap:round;stroke-linejoin:round;stroke-miterlimit:22.9256;}
	
		.st1{fill-rule:evenodd;clip-rule:evenodd;fill:#FFFFFF;stroke:#FFFFFF;stroke-width:0.6043;stroke-linecap:round;stroke-linejoin:round;stroke-miterlimit:22.9256;}
	
		.st2{fill-rule:evenodd;clip-rule:evenodd;fill:#FFFFFF;stroke:#FFFFFF;stroke-width:0.3994;stroke-linecap:round;stroke-linejoin:round;stroke-miterlimit:22.9256;}
	.st3{fill-rule:evenodd;clip-rule:evenodd;fill:none;stroke:#FFFFFF;stroke-width:3.1589;stroke-miterlimit:22.9256;}
</style>
<linearGradient id="SVGID_1_" gradientUnits="userSpaceOnUse" x1="-257" y1="-359" x2="-256.2929" y2="-358.2929">
	<stop  offset="0" style="stop-color:#DEDFE3"/>
	<stop  offset="0.1738" style="stop-color:#D8D9DD"/>
	<stop  offset="0.352" style="stop-color:#C9CACD"/>
	<stop  offset="0.5323" style="stop-color:#B4B5B8"/>
	<stop  offset="0.7139" style="stop-color:#989A9C"/>
	<stop  offset="0.8949" style="stop-color:#797C7E"/>
	<stop  offset="1" style="stop-color:#656B6C"/>
</linearGradient>
<g id="XMLID_221_">
	<path id="XMLID_239_" class="st0" d="M29.7,5.8v59h-2.1c-0.1-0.8-0.3-0.9-0.3-1.8v-45H8.2c-5.5,0-4.5,4.9-4.5,8.4
		c0,5.9-0.3,37.2,0.3,38.4H2.1v7.9h94.8v-7.9h-1.6V21.6c0-2.6-2.2-3.7-4.7-3.7H71.9c-1.3,0-0.8,2.7-0.8,5.3l0,40.8
		c-0.2,1.2-0.9,0.8-2.4,0.8c0.7-1.4,0.3-43.5,0.3-51.1c0-4.4,1-9.2-1.8-10.9c-0.8-0.5-2.5-0.7-3.7-0.7H35
		C32.1,2.1,29.7,2.9,29.7,5.8z"/>
	<path id="XMLID_238_" class="st0" d="M42.1,64V46.1h15v18.7H42.9C42.3,64.8,42.1,64.6,42.1,64z"/>
	<g id="XMLID_231_">
		<rect id="XMLID_237_" x="8.9" y="27.2" class="st1" width="4.7" height="4.7"/>
		<rect id="XMLID_236_" x="17.1" y="27.2" class="st1" width="4.7" height="4.7"/>
		<rect id="XMLID_235_" x="8.9" y="35.9" class="st1" width="4.7" height="4.7"/>
		<rect id="XMLID_234_" x="17.1" y="35.9" class="st1" width="4.7" height="4.7"/>
		<rect id="XMLID_233_" x="8.9" y="45.2" class="st1" width="4.7" height="4.7"/>
		<rect id="XMLID_232_" x="17.1" y="45.2" class="st1" width="4.7" height="4.7"/>
	</g>
	<g id="XMLID_224_">
		<rect id="XMLID_230_" x="77.4" y="27.2" class="st1" width="4.7" height="4.7"/>
		<rect id="XMLID_229_" x="85.6" y="27.2" class="st1" width="4.7" height="4.7"/>
		<rect id="XMLID_228_" x="77.4" y="35.9" class="st1" width="4.7" height="4.7"/>
		<rect id="XMLID_227_" x="85.6" y="35.9" class="st1" width="4.7" height="4.7"/>
		<rect id="XMLID_226_" x="77.4" y="45.2" class="st1" width="4.7" height="4.7"/>
		<rect id="XMLID_225_" x="85.6" y="45.2" class="st1" width="4.7" height="4.7"/>
	</g>
	<polygon id="XMLID_223_" class="st2" points="45.8,10.6 51.9,10.6 51.9,15.9 57.1,15.9 57.1,21.9 51.9,21.9 51.9,27.2 45.8,27.2 
		45.8,21.9 40.5,21.9 40.5,15.9 45.8,15.9 	"/>
	<circle id="XMLID_222_" class="st3" cx="48.8" cy="18.9" r="11.4"/>
</g>
</svg>
